<svg width="18" height="17" viewBox="0 0 18 17" fill="none" xmlns="http://www.w3.org/2000/svg">
<path fill-rule="evenodd" clip-rule="evenodd" d="M3.25981 12.9839C3.31644 12.9225 3.38486 12.8733 3.46098 12.839C3.53711 12.8047 3.61936 12.7862 3.70281 12.7845H17.6219C17.6808 12.7853 17.7382 12.8032 17.7872 12.8358C17.8362 12.8685 17.8747 12.9147 17.8981 12.9687C17.9215 13.0228 17.9288 13.0824 17.9191 13.1405C17.9094 13.1986 17.8831 13.2527 17.8434 13.2962L14.893 16.5721C14.8364 16.6335 14.7679 16.6827 14.6918 16.717C14.6157 16.7513 14.5335 16.7698 14.45 16.7715H0.522074C0.463181 16.7707 0.405782 16.7528 0.356781 16.7202C0.30778 16.6875 0.269263 16.6413 0.245865 16.5873C0.222466 16.5332 0.215181 16.4736 0.224887 16.4155C0.234593 16.3574 0.260875 16.3033 0.300574 16.2598L3.25981 12.9839ZM17.8567 10.2683C17.8964 10.3118 17.9226 10.3658 17.9324 10.4239C17.9421 10.482 17.9348 10.5417 17.9114 10.5957C17.888 10.6498 17.8495 10.6959 17.8005 10.7286C17.7515 10.7613 17.6941 10.7791 17.6352 10.7799L3.71167 10.791C3.62822 10.7893 3.54597 10.7708 3.46984 10.7365C3.39372 10.7023 3.3253 10.653 3.26867 10.5917L0.296144 7.32675C0.256445 7.28324 0.230163 7.22919 0.220457 7.17109C0.210751 7.113 0.218036 7.05334 0.241435 6.99929C0.264834 6.94524 0.30335 6.8991 0.352351 6.86642C0.401352 6.83374 0.458751 6.81591 0.517644 6.81508L14.4411 6.80401C14.5246 6.80572 14.6068 6.82425 14.683 6.85851C14.7591 6.89276 14.8275 6.94203 14.8841 7.00336L17.8567 10.2683ZM3.25981 1.02287C3.31644 0.961536 3.38486 0.912268 3.46098 0.878013C3.53711 0.843759 3.61936 0.825223 3.70281 0.823517L17.6307 0.834592C17.6896 0.835421 17.747 0.853248 17.796 0.885927C17.845 0.918606 17.8835 0.964746 17.9069 1.0188C17.9303 1.07285 17.9376 1.13251 17.9279 1.1906C17.9182 1.24869 17.8919 1.30275 17.8522 1.34626L14.893 4.61116C14.8364 4.67249 14.7679 4.72176 14.6918 4.75602C14.6157 4.79027 14.5335 4.80881 14.45 4.81051H0.522074C0.463181 4.80968 0.405782 4.79186 0.356781 4.75918C0.30778 4.7265 0.269263 4.68036 0.245865 4.62631C0.222466 4.57226 0.215181 4.5126 0.224887 4.4545C0.234593 4.39641 0.260875 4.34236 0.300574 4.29885L3.25981 1.02287Z" fill="white"/>
</svg>
