<svg width="19" height="17" viewBox="0 0 19 17" fill="none" xmlns="http://www.w3.org/2000/svg">
<path fill-rule="evenodd" clip-rule="evenodd" d="M3.51094 12.5981C3.56757 12.5368 3.63599 12.4875 3.71211 12.4532C3.78823 12.419 3.87049 12.4004 3.95394 12.3987H17.873C17.9319 12.3996 17.9893 12.4174 18.0383 12.4501C18.0873 12.4827 18.1258 12.5289 18.1492 12.5829C18.1726 12.637 18.1799 12.6966 18.1702 12.7547C18.1605 12.8128 18.1342 12.8669 18.0945 12.9104L15.1441 16.1864C15.0875 16.2477 15.0191 16.297 14.943 16.3312C14.8668 16.3655 14.7846 16.384 14.7011 16.3857H0.773203C0.71431 16.3849 0.656911 16.3671 0.60791 16.3344C0.558909 16.3017 0.520393 16.2556 0.496994 16.2015C0.473595 16.1475 0.46631 16.0878 0.476016 16.0297C0.485722 15.9716 0.512004 15.9176 0.551703 15.8741L3.51094 12.5981ZM18.1078 9.88249C18.1475 9.926 18.1738 9.98005 18.1835 10.0381C18.1932 10.0962 18.1859 10.1559 18.1625 10.21C18.1391 10.264 18.1006 10.3101 18.0516 10.3428C18.0026 10.3755 17.9452 10.3933 17.8863 10.3942L3.9628 10.4052C3.87935 10.4035 3.79709 10.385 3.72097 10.3507C3.64485 10.3165 3.57643 10.2672 3.5198 10.2059L0.547273 6.94098C0.507574 6.89747 0.481292 6.84341 0.471586 6.78532C0.46188 6.72723 0.469165 6.66757 0.492564 6.61352C0.515963 6.55947 0.554479 6.51333 0.60348 6.48065C0.652481 6.44797 0.70988 6.43014 0.768773 6.42931L14.6923 6.41824C14.7757 6.41994 14.858 6.43848 14.9341 6.47273C15.0102 6.50699 15.0786 6.55626 15.1353 6.61759L18.1078 9.88249ZM3.51094 0.637094C3.56757 0.575764 3.63599 0.526495 3.71211 0.492241C3.78823 0.457986 3.87049 0.43945 3.95394 0.437744L17.8819 0.448819C17.9408 0.449649 17.9982 0.467475 18.0472 0.500154C18.0962 0.532833 18.1347 0.578973 18.1581 0.633024C18.1815 0.687075 18.1888 0.746736 18.1791 0.804829C18.1693 0.862922 18.1431 0.916974 18.1034 0.960484L15.1441 4.22539C15.0875 4.28672 15.0191 4.33599 14.943 4.37024C14.8668 4.4045 14.7846 4.42303 14.7011 4.42474H0.773203C0.71431 4.42391 0.656911 4.40608 0.60791 4.3734C0.558909 4.34073 0.520393 4.29459 0.496994 4.24053C0.473595 4.18648 0.46631 4.12682 0.476016 4.06873C0.485722 4.01064 0.512004 3.95658 0.551703 3.91307L3.51094 0.637094Z" fill="white"/>
</svg>
