<svg width="19" height="17" viewBox="0 0 19 17" fill="none" xmlns="http://www.w3.org/2000/svg">
<path fill-rule="evenodd" clip-rule="evenodd" d="M3.76993 12.3323C3.82656 12.271 3.895 12.2217 3.97113 12.1875C4.04727 12.1532 4.12954 12.1347 4.21301 12.133H18.1346C18.1935 12.1338 18.251 12.1516 18.3 12.1843C18.349 12.217 18.3875 12.2631 18.4109 12.3172C18.4343 12.3713 18.4416 12.4309 18.4319 12.489C18.4222 12.5471 18.3959 12.6012 18.3562 12.6447L15.4053 15.9213C15.3486 15.9826 15.2802 16.0319 15.204 16.0662C15.1279 16.1004 15.0456 16.119 14.9622 16.1207H1.03168C0.972779 16.1199 0.915369 16.102 0.866359 16.0693C0.817349 16.0367 0.778825 15.9905 0.755422 15.9365C0.732019 15.8824 0.724733 15.8227 0.734441 15.7646C0.744148 15.7065 0.770436 15.6524 0.810141 15.6089L3.76993 12.3323ZM18.3695 9.61625C18.4092 9.65976 18.4355 9.71383 18.4452 9.77193C18.4549 9.83003 18.4476 9.88971 18.4242 9.94377C18.4008 9.99783 18.3623 10.044 18.3133 10.0767C18.2642 10.1093 18.2068 10.1272 18.1479 10.128L4.22187 10.1391C4.1384 10.1374 4.05613 10.1188 3.98 10.0846C3.90386 10.0503 3.83543 10.001 3.77879 9.9397L0.80571 6.67418C0.766005 6.63067 0.739717 6.5766 0.73001 6.5185C0.720302 6.46039 0.727588 6.40072 0.750991 6.34666C0.774394 6.2926 0.812918 6.24645 0.861928 6.21377C0.910938 6.18108 0.968348 6.16325 1.02725 6.16242L14.9533 6.15135C15.0368 6.15305 15.1191 6.17159 15.1952 6.20585C15.2713 6.24011 15.3398 6.28939 15.3964 6.35073L18.3695 9.61625ZM3.76993 0.369126C3.82656 0.307784 3.895 0.258506 3.97113 0.224246C4.04727 0.189985 4.12954 0.171445 4.21301 0.169739L18.1435 0.180816C18.2024 0.181645 18.2598 0.199475 18.3088 0.23216C18.3578 0.264845 18.3964 0.310994 18.4198 0.365055C18.4432 0.419116 18.4505 0.478788 18.4407 0.536892C18.431 0.594996 18.4048 0.649058 18.365 0.692576L15.4053 3.95809C15.3486 4.01943 15.2802 4.06871 15.204 4.10297C15.1279 4.13723 15.0456 4.15577 14.9622 4.15748H1.03168C0.972779 4.15665 0.915369 4.13882 0.866359 4.10613C0.817349 4.07345 0.778825 4.0273 0.755422 3.97324C0.732019 3.91918 0.724733 3.8595 0.734441 3.8014C0.744148 3.7433 0.770436 3.68923 0.810141 3.64572L3.76993 0.369126Z" fill="white"/>
</svg>
