<svg width="19" height="17" viewBox="0 0 19 17" fill="none" xmlns="http://www.w3.org/2000/svg">
<path fill-rule="evenodd" clip-rule="evenodd" d="M3.51094 12.9839C3.56757 12.9225 3.63599 12.8733 3.71211 12.839C3.78823 12.8047 3.87049 12.7862 3.95394 12.7845H17.873C17.9319 12.7853 17.9893 12.8032 18.0383 12.8358C18.0873 12.8685 18.1258 12.9147 18.1492 12.9687C18.1726 13.0228 18.1799 13.0824 18.1702 13.1405C18.1605 13.1986 18.1342 13.2527 18.0945 13.2962L15.1441 16.5721C15.0875 16.6335 15.0191 16.6827 14.943 16.717C14.8668 16.7513 14.7846 16.7698 14.7011 16.7715H0.773203C0.71431 16.7707 0.656911 16.7528 0.60791 16.7202C0.558909 16.6875 0.520393 16.6413 0.496994 16.5873C0.473595 16.5332 0.46631 16.4736 0.476016 16.4155C0.485722 16.3574 0.512004 16.3033 0.551703 16.2598L3.51094 12.9839ZM18.1078 10.2683C18.1475 10.3118 18.1738 10.3658 18.1835 10.4239C18.1932 10.482 18.1859 10.5417 18.1625 10.5957C18.1391 10.6498 18.1006 10.6959 18.0516 10.7286C18.0026 10.7613 17.9452 10.7791 17.8863 10.7799L3.9628 10.791C3.87935 10.7893 3.79709 10.7708 3.72097 10.7365C3.64485 10.7023 3.57643 10.653 3.5198 10.5917L0.547273 7.32675C0.507574 7.28324 0.481292 7.22919 0.471586 7.17109C0.46188 7.113 0.469165 7.05334 0.492564 6.99929C0.515963 6.94524 0.554479 6.8991 0.60348 6.86642C0.652481 6.83374 0.70988 6.81591 0.768773 6.81508L14.6923 6.80401C14.7757 6.80572 14.858 6.82425 14.9341 6.85851C15.0102 6.89276 15.0786 6.94203 15.1353 7.00336L18.1078 10.2683ZM3.51094 1.02287C3.56757 0.961536 3.63599 0.912268 3.71211 0.878013C3.78823 0.843759 3.87049 0.825223 3.95394 0.823517L17.8819 0.834592C17.9408 0.835421 17.9982 0.853248 18.0472 0.885927C18.0962 0.918606 18.1347 0.964746 18.1581 1.0188C18.1815 1.07285 18.1888 1.13251 18.1791 1.1906C18.1693 1.24869 18.1431 1.30275 18.1034 1.34626L15.1441 4.61116C15.0875 4.67249 15.0191 4.72176 14.943 4.75602C14.8668 4.79027 14.7846 4.80881 14.7011 4.81051H0.773203C0.71431 4.80968 0.656911 4.79186 0.60791 4.75918C0.558909 4.7265 0.520393 4.68036 0.496994 4.62631C0.473595 4.57226 0.46631 4.5126 0.476016 4.4545C0.485722 4.39641 0.512004 4.34236 0.551703 4.29885L3.51094 1.02287Z" fill="white"/>
</svg>
