<svg width="19" height="17" viewBox="0 0 19 17" fill="none" xmlns="http://www.w3.org/2000/svg">
<path fill-rule="evenodd" clip-rule="evenodd" d="M3.51058 12.598C3.5672 12.5367 3.63563 12.4874 3.71175 12.4531C3.78787 12.4189 3.87012 12.4003 3.95358 12.3986H17.8726C17.9315 12.3995 17.9889 12.4173 18.0379 12.45C18.0869 12.4827 18.1254 12.5288 18.1488 12.5828C18.1722 12.6369 18.1795 12.6966 18.1698 12.7546C18.1601 12.8127 18.1338 12.8668 18.0941 12.9103L15.1438 16.1863C15.0871 16.2476 15.0187 16.2969 14.9426 16.3311C14.8665 16.3654 14.7842 16.3839 14.7008 16.3856H0.772837C0.713944 16.3848 0.656545 16.367 0.607544 16.3343C0.558543 16.3016 0.520026 16.2555 0.496628 16.2014C0.473229 16.1474 0.465944 16.0877 0.47565 16.0296C0.485356 15.9715 0.511638 15.9175 0.551337 15.874L3.51058 12.598ZM18.1074 9.8824C18.1471 9.92591 18.1734 9.97996 18.1831 10.0381C18.1928 10.0961 18.1855 10.1558 18.1621 10.2099C18.1387 10.2639 18.1002 10.3101 18.0512 10.3427C18.0022 10.3754 17.9448 10.3932 17.8859 10.3941L3.96244 10.4051C3.87898 10.4034 3.79673 10.3849 3.72061 10.3506C3.64449 10.3164 3.57606 10.2671 3.51944 10.2058L0.546907 6.94089C0.507208 6.89738 0.480926 6.84332 0.47122 6.78523C0.461514 6.72714 0.468799 6.66748 0.492198 6.61343C0.515596 6.55937 0.554113 6.51323 0.603114 6.48056C0.652115 6.44788 0.709514 6.43005 0.768407 6.42922L14.6919 6.41815C14.7754 6.41985 14.8576 6.43839 14.9337 6.47264C15.0098 6.5069 15.0783 6.55617 15.1349 6.6175L18.1074 9.8824ZM3.51058 0.637002C3.5672 0.575672 3.63563 0.526404 3.71175 0.492149C3.78787 0.457895 3.87012 0.439359 3.95358 0.437653L17.8815 0.448728C17.9404 0.449557 17.9978 0.467383 18.0468 0.500062C18.0958 0.532742 18.1343 0.578882 18.1577 0.632933C18.1811 0.686984 18.1884 0.746644 18.1787 0.804737C18.169 0.86283 18.1427 0.916883 18.103 0.960392L15.1438 4.2253C15.0871 4.28663 15.0187 4.3359 14.9426 4.37015C14.8665 4.40441 14.7842 4.42294 14.7008 4.42465H0.772837C0.713944 4.42382 0.656545 4.40599 0.607544 4.37331C0.558543 4.34063 0.520026 4.29449 0.496628 4.24044C0.473229 4.18639 0.465944 4.12673 0.47565 4.06864C0.485356 4.01054 0.511638 3.95649 0.551337 3.91298L3.51058 0.637002Z" fill="white"/>
</svg>
