<svg width="19" height="17" viewBox="0 0 19 17" fill="none" xmlns="http://www.w3.org/2000/svg">
<path fill-rule="evenodd" clip-rule="evenodd" d="M3.7618 12.9839C3.81842 12.9226 3.88685 12.8733 3.96297 12.839C4.03909 12.8048 4.12134 12.7862 4.2048 12.7845H18.1239C18.1828 12.7854 18.2402 12.8032 18.2892 12.8359C18.3382 12.8685 18.3767 12.9147 18.4001 12.9687C18.4235 13.0228 18.4308 13.0824 18.421 13.1405C18.4113 13.1986 18.3851 13.2527 18.3454 13.2962L15.395 16.5722C15.3384 16.6335 15.2699 16.6828 15.1938 16.717C15.1177 16.7513 15.0354 16.7698 14.952 16.7715H1.02406C0.965165 16.7707 0.907766 16.7529 0.858765 16.7202C0.809764 16.6875 0.771247 16.6414 0.747848 16.5873C0.72445 16.5333 0.717165 16.4736 0.726871 16.4155C0.736576 16.3574 0.762859 16.3034 0.802557 16.2599L3.7618 12.9839ZM18.3586 10.2683C18.3983 10.3118 18.4246 10.3659 18.4343 10.424C18.444 10.482 18.4368 10.5417 18.4134 10.5958C18.39 10.6498 18.3514 10.6959 18.3024 10.7286C18.2534 10.7613 18.196 10.7791 18.1371 10.78L4.21366 10.791C4.1302 10.7893 4.04795 10.7708 3.97183 10.7365C3.89571 10.7023 3.82728 10.653 3.77066 10.5917L0.798127 7.32678C0.758429 7.28327 0.732146 7.22922 0.722441 7.17112C0.712735 7.11303 0.72002 7.05337 0.743418 6.99932C0.766817 6.94527 0.805334 6.89913 0.854335 6.86645C0.903336 6.83377 0.960735 6.81594 1.01963 6.81512L14.9431 6.80404C15.0266 6.80575 15.1088 6.82428 15.1849 6.85854C15.2611 6.89279 15.3295 6.94206 15.3861 7.00339L18.3586 10.2683ZM3.7618 1.0229C3.81842 0.961567 3.88685 0.912299 3.96297 0.878044C4.03909 0.843789 4.12134 0.825254 4.2048 0.823547L18.1327 0.834622C18.1916 0.835452 18.249 0.853278 18.298 0.885957C18.347 0.918636 18.3855 0.964776 18.4089 1.01883C18.4323 1.07288 18.4396 1.13254 18.4299 1.19063C18.4202 1.24873 18.3939 1.30278 18.3542 1.34629L15.395 4.61119C15.3384 4.67252 15.2699 4.72179 15.1938 4.75605C15.1177 4.7903 15.0354 4.80884 14.952 4.81054H1.02406C0.965165 4.80971 0.907766 4.79189 0.858765 4.75921C0.809764 4.72653 0.771247 4.68039 0.747848 4.62634C0.72445 4.57229 0.717165 4.51263 0.726871 4.45453C0.736576 4.39644 0.762859 4.34239 0.802557 4.29888L3.7618 1.0229Z" fill="white"/>
</svg>
