<svg width="19" height="17" viewBox="0 0 19 17" fill="none" xmlns="http://www.w3.org/2000/svg">
<path fill-rule="evenodd" clip-rule="evenodd" d="M3.76204 12.9839C3.81867 12.9225 3.88709 12.8733 3.96321 12.839C4.03933 12.8047 4.12159 12.7862 4.20504 12.7845H18.1241C18.183 12.7853 18.2404 12.8032 18.2894 12.8358C18.3384 12.8685 18.3769 12.9147 18.4003 12.9687C18.4237 13.0228 18.431 13.0824 18.4213 13.1405C18.4116 13.1986 18.3853 13.2527 18.3456 13.2962L15.3952 16.5721C15.3386 16.6335 15.2702 16.6827 15.1941 16.717C15.1179 16.7513 15.0357 16.7698 14.9522 16.7715H1.0243C0.965409 16.7707 0.90801 16.7528 0.859009 16.7202C0.810008 16.6875 0.771491 16.6413 0.748093 16.5873C0.724694 16.5332 0.717409 16.4736 0.727115 16.4155C0.73682 16.3574 0.763103 16.3033 0.802801 16.2598L3.76204 12.9839ZM18.3589 10.2683C18.3986 10.3118 18.4249 10.3658 18.4346 10.4239C18.4443 10.482 18.437 10.5417 18.4136 10.5957C18.3902 10.6498 18.3517 10.6959 18.3027 10.7286C18.2537 10.7613 18.1963 10.7791 18.1374 10.7799L4.2139 10.791C4.13045 10.7893 4.04819 10.7708 3.97207 10.7365C3.89595 10.7023 3.82753 10.653 3.7709 10.5917L0.798371 7.32675C0.758673 7.28324 0.73239 7.22919 0.722685 7.17109C0.712979 7.113 0.720264 7.05334 0.743663 6.99929C0.767061 6.94524 0.805578 6.8991 0.854579 6.86642C0.90358 6.83374 0.960979 6.81591 1.01987 6.81508L14.9434 6.80401C15.0268 6.80572 15.1091 6.82425 15.1852 6.85851C15.2613 6.89276 15.3297 6.94203 15.3864 7.00336L18.3589 10.2683ZM3.76204 1.02287C3.81867 0.961536 3.88709 0.912268 3.96321 0.878013C4.03933 0.843759 4.12159 0.825223 4.20504 0.823517L18.133 0.834592C18.1919 0.835421 18.2493 0.853248 18.2983 0.885927C18.3473 0.918606 18.3858 0.964746 18.4092 1.0188C18.4326 1.07285 18.4399 1.13251 18.4302 1.1906C18.4204 1.24869 18.3942 1.30275 18.3545 1.34626L15.3952 4.61116C15.3386 4.67249 15.2702 4.72176 15.1941 4.75602C15.1179 4.79027 15.0357 4.80881 14.9522 4.81051H1.0243C0.965409 4.80968 0.90801 4.79186 0.859009 4.75918C0.810008 4.7265 0.771491 4.68036 0.748093 4.62631C0.724694 4.57226 0.717409 4.5126 0.727115 4.4545C0.73682 4.39641 0.763103 4.34236 0.802801 4.29885L3.76204 1.02287Z" fill="white"/>
</svg>
