<svg width="19" height="17" viewBox="0 0 19 17" fill="none" xmlns="http://www.w3.org/2000/svg">
<path fill-rule="evenodd" clip-rule="evenodd" d="M3.51058 12.9839C3.5672 12.9226 3.63563 12.8733 3.71175 12.839C3.78787 12.8048 3.87012 12.7862 3.95358 12.7845H17.8726C17.9315 12.7854 17.9889 12.8032 18.0379 12.8359C18.0869 12.8685 18.1254 12.9147 18.1488 12.9687C18.1722 13.0228 18.1795 13.0824 18.1698 13.1405C18.1601 13.1986 18.1338 13.2527 18.0941 13.2962L15.1438 16.5722C15.0871 16.6335 15.0187 16.6828 14.9426 16.717C14.8665 16.7513 14.7842 16.7698 14.7008 16.7715H0.772837C0.713944 16.7707 0.656545 16.7529 0.607544 16.7202C0.558543 16.6875 0.520026 16.6414 0.496628 16.5873C0.473229 16.5333 0.465944 16.4736 0.47565 16.4155C0.485356 16.3574 0.511638 16.3034 0.551337 16.2599L3.51058 12.9839ZM18.1074 10.2683C18.1471 10.3118 18.1734 10.3659 18.1831 10.424C18.1928 10.482 18.1855 10.5417 18.1621 10.5958C18.1387 10.6498 18.1002 10.6959 18.0512 10.7286C18.0022 10.7613 17.9448 10.7791 17.8859 10.78L3.96244 10.791C3.87898 10.7893 3.79673 10.7708 3.72061 10.7365C3.64449 10.7023 3.57606 10.653 3.51944 10.5917L0.546907 7.32678C0.507208 7.28327 0.480926 7.22922 0.47122 7.17112C0.461514 7.11303 0.468799 7.05337 0.492198 6.99932C0.515596 6.94527 0.554113 6.89913 0.603114 6.86645C0.652115 6.83377 0.709514 6.81594 0.768407 6.81512L14.6919 6.80404C14.7754 6.80575 14.8576 6.82428 14.9337 6.85854C15.0098 6.89279 15.0783 6.94206 15.1349 7.00339L18.1074 10.2683ZM3.51058 1.0229C3.5672 0.961567 3.63563 0.912299 3.71175 0.878044C3.78787 0.843789 3.87012 0.825254 3.95358 0.823547L17.8815 0.834622C17.9404 0.835452 17.9978 0.853278 18.0468 0.885957C18.0958 0.918636 18.1343 0.964776 18.1577 1.01883C18.1811 1.07288 18.1884 1.13254 18.1787 1.19063C18.169 1.24873 18.1427 1.30278 18.103 1.34629L15.1438 4.61119C15.0871 4.67252 15.0187 4.72179 14.9426 4.75605C14.8665 4.7903 14.7842 4.80884 14.7008 4.81054H0.772837C0.713944 4.80971 0.656545 4.79189 0.607544 4.75921C0.558543 4.72653 0.520026 4.68039 0.496628 4.62634C0.473229 4.57229 0.465944 4.51263 0.47565 4.45453C0.485356 4.39644 0.511638 4.34239 0.551337 4.29888L3.51058 1.0229Z" fill="white"/>
</svg>
