<svg width="18" height="17" viewBox="0 0 18 17" fill="none" xmlns="http://www.w3.org/2000/svg">
<path fill-rule="evenodd" clip-rule="evenodd" d="M3.2596 12.598C3.31623 12.5367 3.38465 12.4874 3.46077 12.4531C3.53689 12.4189 3.61914 12.4003 3.7026 12.3986H17.6217C17.6806 12.3995 17.738 12.4173 17.787 12.45C17.836 12.4827 17.8745 12.5288 17.8979 12.5828C17.9213 12.6369 17.9286 12.6966 17.9188 12.7546C17.9091 12.8127 17.8829 12.8668 17.8432 12.9103L14.8928 16.1863C14.8362 16.2476 14.7677 16.2969 14.6916 16.3311C14.6155 16.3654 14.5332 16.3839 14.4498 16.3856H0.52186C0.462967 16.3848 0.405568 16.367 0.356567 16.3343C0.307566 16.3016 0.26905 16.2555 0.245651 16.2014C0.222252 16.1474 0.214968 16.0877 0.224673 16.0296C0.234379 15.9715 0.260662 15.9175 0.30036 15.874L3.2596 12.598ZM17.8565 9.8824C17.8962 9.92591 17.9224 9.97996 17.9321 10.0381C17.9418 10.0961 17.9346 10.1558 17.9112 10.2099C17.8878 10.2639 17.8492 10.3101 17.8002 10.3427C17.7512 10.3754 17.6938 10.3932 17.635 10.3941L3.71146 10.4051C3.628 10.4034 3.54575 10.3849 3.46963 10.3506C3.39351 10.3164 3.32509 10.2671 3.26846 10.2058L0.29593 6.94089C0.256232 6.89738 0.229949 6.84332 0.220243 6.78523C0.210538 6.72714 0.217822 6.66748 0.241221 6.61343C0.26462 6.55937 0.303136 6.51323 0.352137 6.48056C0.401138 6.44788 0.458537 6.43005 0.51743 6.42922L14.4409 6.41815C14.5244 6.41985 14.6066 6.43839 14.6828 6.47264C14.7589 6.5069 14.8273 6.55617 14.8839 6.6175L17.8565 9.8824ZM3.2596 0.637002C3.31623 0.575672 3.38465 0.526404 3.46077 0.492149C3.53689 0.457895 3.61914 0.439359 3.7026 0.437653L17.6305 0.448728C17.6894 0.449557 17.7468 0.467383 17.7958 0.500062C17.8448 0.532742 17.8833 0.578882 17.9067 0.632933C17.9301 0.686984 17.9374 0.746644 17.9277 0.804737C17.918 0.86283 17.8917 0.916883 17.852 0.960392L14.8928 4.2253C14.8362 4.28663 14.7677 4.3359 14.6916 4.37015C14.6155 4.40441 14.5332 4.42294 14.4498 4.42465H0.52186C0.462967 4.42382 0.405568 4.40599 0.356567 4.37331C0.307566 4.34063 0.26905 4.29449 0.245651 4.24044C0.222252 4.18639 0.214968 4.12673 0.224673 4.06864C0.234379 4.01054 0.260662 3.95649 0.30036 3.91298L3.2596 0.637002Z" fill="white"/>
</svg>
