<svg width="19" height="17" viewBox="0 0 19 17" fill="none" xmlns="http://www.w3.org/2000/svg">
<path fill-rule="evenodd" clip-rule="evenodd" d="M3.7618 12.598C3.81842 12.5367 3.88685 12.4874 3.96297 12.4531C4.03909 12.4189 4.12134 12.4003 4.2048 12.3986H18.1239C18.1828 12.3995 18.2402 12.4173 18.2892 12.45C18.3382 12.4827 18.3767 12.5288 18.4001 12.5828C18.4235 12.6369 18.4308 12.6966 18.421 12.7546C18.4113 12.8127 18.3851 12.8668 18.3454 12.9103L15.395 16.1863C15.3384 16.2476 15.2699 16.2969 15.1938 16.3311C15.1177 16.3654 15.0354 16.3839 14.952 16.3856H1.02406C0.965165 16.3848 0.907766 16.367 0.858765 16.3343C0.809764 16.3016 0.771247 16.2555 0.747848 16.2014C0.72445 16.1474 0.717165 16.0877 0.726871 16.0296C0.736576 15.9715 0.762859 15.9175 0.802557 15.874L3.7618 12.598ZM18.3586 9.8824C18.3983 9.92591 18.4246 9.97996 18.4343 10.0381C18.444 10.0961 18.4368 10.1558 18.4134 10.2099C18.39 10.2639 18.3514 10.3101 18.3024 10.3427C18.2534 10.3754 18.196 10.3932 18.1371 10.3941L4.21366 10.4051C4.1302 10.4034 4.04795 10.3849 3.97183 10.3506C3.89571 10.3164 3.82728 10.2671 3.77066 10.2058L0.798127 6.94089C0.758429 6.89738 0.732146 6.84332 0.722441 6.78523C0.712735 6.72714 0.72002 6.66748 0.743418 6.61343C0.766817 6.55937 0.805334 6.51323 0.854335 6.48056C0.903336 6.44788 0.960735 6.43005 1.01963 6.42922L14.9431 6.41815C15.0266 6.41985 15.1088 6.43839 15.1849 6.47264C15.2611 6.5069 15.3295 6.55617 15.3861 6.6175L18.3586 9.8824ZM3.7618 0.637002C3.81842 0.575672 3.88685 0.526404 3.96297 0.492149C4.03909 0.457895 4.12134 0.439359 4.2048 0.437653L18.1327 0.448728C18.1916 0.449557 18.249 0.467383 18.298 0.500062C18.347 0.532742 18.3855 0.578882 18.4089 0.632933C18.4323 0.686984 18.4396 0.746644 18.4299 0.804737C18.4202 0.86283 18.3939 0.916883 18.3542 0.960392L15.395 4.2253C15.3384 4.28663 15.2699 4.3359 15.1938 4.37015C15.1177 4.40441 15.0354 4.42294 14.952 4.42465H1.02406C0.965165 4.42382 0.907766 4.40599 0.858765 4.37331C0.809764 4.34063 0.771247 4.29449 0.747848 4.24044C0.72445 4.18639 0.717165 4.12673 0.726871 4.06864C0.736576 4.01054 0.762859 3.95649 0.802557 3.91298L3.7618 0.637002Z" fill="white"/>
</svg>
