<svg width="19" height="17" viewBox="0 0 19 17" fill="none" xmlns="http://www.w3.org/2000/svg">
<path fill-rule="evenodd" clip-rule="evenodd" d="M3.43866 12.2789C3.4953 12.2176 3.56373 12.1683 3.63987 12.1341C3.716 12.0998 3.79827 12.0813 3.88174 12.0795H17.8034C17.8623 12.0804 17.9197 12.0982 17.9687 12.1309C18.0177 12.1636 18.0562 12.2097 18.0796 12.2638C18.103 12.3178 18.1103 12.3775 18.1006 12.4356C18.0909 12.4937 18.0646 12.5478 18.0249 12.5913L15.074 15.8679C15.0174 15.9292 14.9489 15.9785 14.8728 16.0128C14.7966 16.047 14.7144 16.0656 14.6309 16.0673H0.700414C0.64151 16.0665 0.584101 16.0486 0.535091 16.0159C0.48608 15.9833 0.447557 15.9371 0.424154 15.883C0.400751 15.829 0.393465 15.7693 0.403172 15.7112C0.41288 15.6531 0.439167 15.599 0.478873 15.5555L3.43866 12.2789ZM18.0382 9.56284C18.0779 9.60636 18.1042 9.66042 18.1139 9.71853C18.1236 9.77663 18.1163 9.8363 18.0929 9.89036C18.0695 9.94442 18.031 9.99057 17.982 10.0233C17.933 10.0559 17.8756 10.0738 17.8167 10.0746L3.8906 10.0857C3.80713 10.084 3.72486 10.0654 3.64873 10.0312C3.57259 9.99691 3.50416 9.94763 3.44752 9.88629L0.474442 6.62078C0.434736 6.57726 0.408449 6.5232 0.398741 6.46509C0.389034 6.40699 0.39632 6.34732 0.419723 6.29326C0.443126 6.2392 0.48165 6.19305 0.53066 6.16036C0.57967 6.12768 0.637079 6.10985 0.695983 6.10902L14.622 6.09794C14.7055 6.09965 14.7878 6.11819 14.8639 6.15245C14.9401 6.18671 15.0085 6.23599 15.0651 6.29733L18.0382 9.56284ZM3.43866 0.31572C3.4953 0.254378 3.56373 0.205101 3.63987 0.17084C3.716 0.136579 3.79827 0.11804 3.88174 0.116333L17.8122 0.12741C17.8711 0.12824 17.9285 0.146069 17.9776 0.178754C18.0266 0.21144 18.0651 0.257588 18.0885 0.311649C18.1119 0.365711 18.1192 0.425382 18.1095 0.483486C18.0998 0.54159 18.0735 0.595652 18.0338 0.63917L15.074 3.90468C15.0174 3.96603 14.9489 4.0153 14.8728 4.04956C14.7966 4.08383 14.7144 4.10236 14.6309 4.10407H0.700414C0.64151 4.10324 0.584101 4.08541 0.535091 4.05273C0.48608 4.02004 0.447557 3.97389 0.424154 3.91983C0.400751 3.86577 0.393465 3.8061 0.403172 3.748C0.41288 3.68989 0.439167 3.63583 0.478873 3.59231L3.43866 0.31572Z" fill="white"/>
</svg>
