<svg width="19" height="17" viewBox="0 0 19 17" fill="none" xmlns="http://www.w3.org/2000/svg">
<path fill-rule="evenodd" clip-rule="evenodd" d="M3.43838 12.3325C3.49502 12.2711 3.56346 12.2218 3.63959 12.1876C3.71573 12.1533 3.798 12.1348 3.88147 12.1331H17.8031C17.862 12.1339 17.9194 12.1517 17.9684 12.1844C18.0174 12.2171 18.056 12.2633 18.0794 12.3173C18.1028 12.3714 18.11 12.431 18.1003 12.4892C18.0906 12.5473 18.0643 12.6013 18.0246 12.6448L15.0737 15.9214C15.0171 15.9828 14.9486 16.032 14.8725 16.0663C14.7964 16.1006 14.7141 16.1191 14.6306 16.1208H0.700139C0.641236 16.12 0.583826 16.1022 0.534816 16.0695C0.485806 16.0368 0.447282 15.9906 0.423879 15.9366C0.400476 15.8825 0.39319 15.8228 0.402898 15.7647C0.412605 15.7066 0.438893 15.6526 0.478598 15.6091L3.43838 12.3325ZM18.0379 9.61637C18.0776 9.65989 18.1039 9.71395 18.1136 9.77205C18.1233 9.83016 18.1161 9.88983 18.0927 9.94389C18.0692 9.99795 18.0307 10.0441 17.9817 10.0768C17.9327 10.1095 17.8753 10.1273 17.8164 10.1281L3.89033 10.1392C3.80686 10.1375 3.72459 10.119 3.64845 10.0847C3.57232 10.0504 3.50388 10.0012 3.44725 9.93982L0.474167 6.6743C0.434462 6.63079 0.408174 6.57672 0.398467 6.51862C0.388759 6.46052 0.396045 6.40085 0.419448 6.34678C0.442851 6.29272 0.481375 6.24657 0.530385 6.21389C0.579395 6.1812 0.636805 6.16337 0.695708 6.16254L14.6218 6.15147C14.7052 6.15317 14.7875 6.17171 14.8636 6.20597C14.9398 6.24024 15.0082 6.28951 15.0649 6.35085L18.0379 9.61637ZM3.43838 0.369248C3.49502 0.307906 3.56346 0.258629 3.63959 0.224368C3.71573 0.190107 3.798 0.171567 3.88147 0.169861L17.812 0.180938C17.8709 0.181767 17.9283 0.199597 17.9773 0.232282C18.0263 0.264967 18.0648 0.311116 18.0882 0.365177C18.1116 0.419238 18.1189 0.47891 18.1092 0.537014C18.0995 0.595118 18.0732 0.64918 18.0335 0.692698L15.0737 3.95821C15.0171 4.01955 14.9486 4.06883 14.8725 4.10309C14.7964 4.13735 14.7141 4.15589 14.6306 4.1576H0.700139C0.641236 4.15677 0.583826 4.13894 0.534816 4.10625C0.485806 4.07357 0.447282 4.02742 0.423879 3.97336C0.400476 3.9193 0.39319 3.85963 0.402898 3.80152C0.412605 3.74342 0.438893 3.68936 0.478598 3.64584L3.43838 0.369248Z" fill="white"/>
</svg>
