<svg width="19" height="17" viewBox="0 0 19 17" fill="none" xmlns="http://www.w3.org/2000/svg">
<path fill-rule="evenodd" clip-rule="evenodd" d="M3.76204 12.598C3.81867 12.5367 3.88709 12.4875 3.96321 12.4532C4.03933 12.4189 4.12159 12.4004 4.20504 12.3987H18.1241C18.183 12.3995 18.2404 12.4174 18.2894 12.45C18.3384 12.4827 18.3769 12.5289 18.4003 12.5829C18.4237 12.637 18.431 12.6966 18.4213 12.7547C18.4116 12.8128 18.3853 12.8669 18.3456 12.9104L15.3952 16.1863C15.3386 16.2477 15.2702 16.2969 15.1941 16.3312C15.1179 16.3655 15.0357 16.384 14.9522 16.3857H1.0243C0.965409 16.3849 0.90801 16.367 0.859009 16.3344C0.810008 16.3017 0.771491 16.2555 0.748093 16.2015C0.724694 16.1474 0.717409 16.0878 0.727115 16.0297C0.73682 15.9716 0.763103 15.9175 0.802801 15.874L3.76204 12.598ZM18.3589 9.88246C18.3986 9.92597 18.4249 9.98002 18.4346 10.0381C18.4443 10.0962 18.437 10.1559 18.4136 10.2099C18.3902 10.264 18.3517 10.3101 18.3027 10.3428C18.2537 10.3755 18.1963 10.3933 18.1374 10.3941L4.2139 10.4052C4.13045 10.4035 4.04819 10.385 3.97207 10.3507C3.89595 10.3165 3.82753 10.2672 3.7709 10.2059L0.798371 6.94095C0.758673 6.89744 0.73239 6.84338 0.722685 6.78529C0.712979 6.7272 0.720264 6.66754 0.743663 6.61349C0.767061 6.55944 0.805578 6.5133 0.854579 6.48062C0.90358 6.44794 0.960979 6.43011 1.01987 6.42928L14.9434 6.41821C15.0268 6.41991 15.1091 6.43845 15.1852 6.4727C15.2613 6.50696 15.3297 6.55623 15.3864 6.61756L18.3589 9.88246ZM3.76204 0.637063C3.81867 0.575733 3.88709 0.526465 3.96321 0.49221C4.03933 0.457956 4.12159 0.43942 4.20504 0.437714L18.133 0.448789C18.1919 0.449618 18.2493 0.467444 18.2983 0.500123C18.3473 0.532803 18.3858 0.578943 18.4092 0.632994C18.4326 0.687045 18.4399 0.746705 18.4302 0.804798C18.4204 0.862891 18.3942 0.916944 18.3545 0.960453L15.3952 4.22536C15.3386 4.28669 15.2702 4.33596 15.1941 4.37021C15.1179 4.40447 15.0357 4.423 14.9522 4.42471H1.0243C0.965409 4.42388 0.90801 4.40605 0.859009 4.37337C0.810008 4.3407 0.771491 4.29455 0.748093 4.2405C0.724694 4.18645 0.717409 4.12679 0.727115 4.0687C0.73682 4.01061 0.763103 3.95655 0.802801 3.91304L3.76204 0.637063Z" fill="white"/>
</svg>
