<svg width="18" height="17" viewBox="0 0 18 17" fill="none" xmlns="http://www.w3.org/2000/svg">
<path fill-rule="evenodd" clip-rule="evenodd" d="M3.25981 12.5981C3.31644 12.5368 3.38486 12.4875 3.46098 12.4532C3.53711 12.419 3.61936 12.4004 3.70281 12.3987H17.6219C17.6808 12.3996 17.7382 12.4174 17.7872 12.4501C17.8362 12.4827 17.8747 12.5289 17.8981 12.5829C17.9215 12.637 17.9288 12.6966 17.9191 12.7547C17.9094 12.8128 17.8831 12.8669 17.8434 12.9104L14.893 16.1864C14.8364 16.2477 14.7679 16.297 14.6918 16.3312C14.6157 16.3655 14.5335 16.384 14.45 16.3857H0.522074C0.463181 16.3849 0.405782 16.3671 0.356781 16.3344C0.30778 16.3017 0.269263 16.2556 0.245865 16.2015C0.222466 16.1475 0.215181 16.0878 0.224887 16.0297C0.234593 15.9716 0.260875 15.9176 0.300574 15.8741L3.25981 12.5981ZM17.8567 9.88249C17.8964 9.926 17.9226 9.98005 17.9324 10.0381C17.9421 10.0962 17.9348 10.1559 17.9114 10.21C17.888 10.264 17.8495 10.3101 17.8005 10.3428C17.7515 10.3755 17.6941 10.3933 17.6352 10.3942L3.71167 10.4052C3.62822 10.4035 3.54597 10.385 3.46984 10.3507C3.39372 10.3165 3.3253 10.2672 3.26867 10.2059L0.296144 6.94098C0.256445 6.89747 0.230163 6.84341 0.220457 6.78532C0.210751 6.72723 0.218036 6.66757 0.241435 6.61352C0.264834 6.55947 0.30335 6.51333 0.352351 6.48065C0.401352 6.44797 0.458751 6.43014 0.517644 6.42931L14.4411 6.41824C14.5246 6.41994 14.6068 6.43848 14.683 6.47273C14.7591 6.50699 14.8275 6.55626 14.8841 6.61759L17.8567 9.88249ZM3.25981 0.637094C3.31644 0.575764 3.38486 0.526495 3.46098 0.492241C3.53711 0.457986 3.61936 0.43945 3.70281 0.437744L17.6307 0.448819C17.6896 0.449649 17.747 0.467475 17.796 0.500154C17.845 0.532833 17.8835 0.578973 17.9069 0.633024C17.9303 0.687075 17.9376 0.746736 17.9279 0.804829C17.9182 0.862922 17.8919 0.916974 17.8522 0.960484L14.893 4.22539C14.8364 4.28672 14.7679 4.33599 14.6918 4.37024C14.6157 4.4045 14.5335 4.42303 14.45 4.42474H0.522074C0.463181 4.42391 0.405782 4.40608 0.356781 4.3734C0.30778 4.34073 0.269263 4.29459 0.245865 4.24053C0.222466 4.18648 0.215181 4.12682 0.224887 4.06873C0.234593 4.01064 0.260875 3.95658 0.300574 3.91307L3.25981 0.637094Z" fill="white"/>
</svg>
