<svg width="19" height="17" viewBox="0 0 19 17" fill="none" xmlns="http://www.w3.org/2000/svg">
<path fill-rule="evenodd" clip-rule="evenodd" d="M3.77017 12.2788C3.82681 12.2175 3.89524 12.1682 3.97138 12.1339C4.04751 12.0997 4.12978 12.0811 4.21325 12.0794H18.1349C18.1938 12.0803 18.2512 12.0981 18.3002 12.1308C18.3492 12.1635 18.3877 12.2096 18.4111 12.2637C18.4345 12.3177 18.4418 12.3774 18.4321 12.4355C18.4224 12.4936 18.3961 12.5477 18.3564 12.5912L15.4055 15.8678C15.3489 15.9291 15.2804 15.9784 15.2043 16.0127C15.1282 16.0469 15.0459 16.0655 14.9624 16.0672H1.03193C0.973023 16.0663 0.915613 16.0485 0.866603 16.0158C0.817593 15.9831 0.779069 15.937 0.755666 15.8829C0.732263 15.8289 0.724977 15.7692 0.734685 15.7111C0.744392 15.653 0.77068 15.5989 0.810385 15.5554L3.77017 12.2788ZM18.3697 9.56272C18.4094 9.60624 18.4357 9.6603 18.4454 9.7184C18.4551 9.77651 18.4478 9.83618 18.4244 9.89024C18.401 9.9443 18.3625 9.99045 18.3135 10.0231C18.2645 10.0558 18.2071 10.0736 18.1482 10.0745L4.22212 10.0856C4.13864 10.0838 4.05638 10.0653 3.98024 10.031C3.90411 9.99679 3.83567 9.94751 3.77903 9.88617L0.805955 6.62065C0.766249 6.57714 0.739961 6.52307 0.730254 6.46497C0.720546 6.40687 0.727832 6.3472 0.751236 6.29313C0.774639 6.23907 0.813162 6.19292 0.862172 6.16024C0.911182 6.12755 0.968592 6.10972 1.0275 6.10889L14.9536 6.09782C15.037 6.09952 15.1193 6.11806 15.1954 6.15232C15.2716 6.18659 15.34 6.23586 15.3966 6.2972L18.3697 9.56272ZM3.77017 0.315598C3.82681 0.254256 3.89524 0.204979 3.97138 0.170718C4.04751 0.136457 4.12978 0.117918 4.21325 0.116211L18.1437 0.127288C18.2027 0.128118 18.2601 0.145947 18.3091 0.178632C18.3581 0.211318 18.3966 0.257466 18.42 0.311527C18.4434 0.365589 18.4507 0.42526 18.441 0.483364C18.4313 0.541468 18.405 0.59553 18.3653 0.639048L15.4055 3.90456C15.3489 3.9659 15.2804 4.01518 15.2043 4.04944C15.1282 4.0837 15.0459 4.10224 14.9624 4.10395H1.03193C0.973023 4.10312 0.915613 4.08529 0.866603 4.0526C0.817593 4.01992 0.779069 3.97377 0.755666 3.91971C0.732263 3.86565 0.724977 3.80598 0.734685 3.74787C0.744392 3.68977 0.77068 3.63571 0.810385 3.59219L3.77017 0.315598Z" fill="white"/>
</svg>
