<svg width="19" height="17" viewBox="0 0 19 17" fill="none" xmlns="http://www.w3.org/2000/svg">
<path fill-rule="evenodd" clip-rule="evenodd" d="M3.60416 12.3325C3.66079 12.2711 3.72923 12.2218 3.80536 12.1876C3.8815 12.1533 3.96377 12.1348 4.04724 12.1331H17.9689C18.0278 12.1339 18.0852 12.1517 18.1342 12.1844C18.1832 12.2171 18.2217 12.2633 18.2451 12.3173C18.2685 12.3714 18.2758 12.431 18.2661 12.4892C18.2564 12.5473 18.2301 12.6013 18.1904 12.6448L15.2395 15.9214C15.1829 15.9828 15.1144 16.032 15.0383 16.0663C14.9621 16.1006 14.8799 16.1191 14.7964 16.1208H0.865911C0.807007 16.12 0.749598 16.1022 0.700587 16.0695C0.651577 16.0368 0.613054 15.9906 0.589651 15.9366C0.566248 15.8825 0.558962 15.8228 0.568669 15.7647C0.578377 15.7066 0.604664 15.6526 0.64437 15.6091L3.60416 12.3325ZM18.2037 9.61637C18.2434 9.65989 18.2697 9.71395 18.2794 9.77205C18.2891 9.83016 18.2818 9.88983 18.2584 9.94389C18.235 9.99795 18.1965 10.0441 18.1475 10.0768C18.0985 10.1095 18.0411 10.1273 17.9822 10.1281L4.0561 10.1392C3.97263 10.1375 3.89036 10.119 3.81422 10.0847C3.73809 10.0504 3.66965 10.0012 3.61302 9.93982L0.639939 6.6743C0.600233 6.63079 0.573946 6.57672 0.564238 6.51862C0.554531 6.46052 0.561817 6.40085 0.58522 6.34678C0.608623 6.29272 0.647146 6.24657 0.696157 6.21389C0.745167 6.1812 0.802576 6.16337 0.86148 6.16254L14.7875 6.15147C14.871 6.15317 14.9533 6.17171 15.0294 6.20597C15.1056 6.24024 15.174 6.28951 15.2306 6.35085L18.2037 9.61637ZM3.60416 0.369248C3.66079 0.307906 3.72923 0.258629 3.80536 0.224368C3.8815 0.190107 3.96377 0.171567 4.04724 0.169861L17.9777 0.180938C18.0366 0.181767 18.094 0.199597 18.1431 0.232282C18.1921 0.264967 18.2306 0.311116 18.254 0.365177C18.2774 0.419238 18.2847 0.47891 18.275 0.537014C18.2653 0.595118 18.239 0.64918 18.1993 0.692698L15.2395 3.95821C15.1829 4.01955 15.1144 4.06883 15.0383 4.10309C14.9621 4.13735 14.8799 4.15589 14.7964 4.1576H0.865911C0.807007 4.15677 0.749598 4.13894 0.700587 4.10625C0.651577 4.07357 0.613054 4.02742 0.589651 3.97336C0.566248 3.9193 0.558962 3.85963 0.568669 3.80152C0.578377 3.74342 0.604664 3.68936 0.64437 3.64584L3.60416 0.369248Z" fill="white"/>
</svg>
