<svg width="19" height="17" viewBox="0 0 19 17" fill="none" xmlns="http://www.w3.org/2000/svg">
<path fill-rule="evenodd" clip-rule="evenodd" d="M3.60446 12.2789C3.6611 12.2176 3.72953 12.1683 3.80567 12.1341C3.8818 12.0998 3.96407 12.0813 4.04754 12.0795H17.9692C18.0281 12.0804 18.0855 12.0982 18.1345 12.1309C18.1835 12.1636 18.222 12.2097 18.2454 12.2638C18.2688 12.3178 18.2761 12.3775 18.2664 12.4356C18.2567 12.4937 18.2304 12.5478 18.1907 12.5913L15.2398 15.8679C15.1832 15.9292 15.1147 15.9785 15.0386 16.0128C14.9624 16.047 14.8802 16.0656 14.7967 16.0673H0.866216C0.807312 16.0665 0.749903 16.0486 0.700893 16.0159C0.651882 15.9833 0.613359 15.9371 0.589956 15.883C0.566553 15.829 0.559267 15.7693 0.568974 15.7112C0.578682 15.6531 0.604969 15.599 0.644675 15.5555L3.60446 12.2789ZM18.204 9.56284C18.2437 9.60636 18.27 9.66042 18.2797 9.71853C18.2894 9.77663 18.2821 9.8363 18.2587 9.89036C18.2353 9.94442 18.1968 9.99057 18.1478 10.0233C18.0988 10.0559 18.0414 10.0738 17.9825 10.0746L4.05641 10.0857C3.97293 10.084 3.89067 10.0654 3.81453 10.0312C3.73839 9.99691 3.66996 9.94763 3.61332 9.88629L0.640244 6.62078C0.600538 6.57726 0.574251 6.5232 0.564543 6.46509C0.554836 6.40699 0.562122 6.34732 0.585525 6.29326C0.608928 6.2392 0.647452 6.19305 0.696462 6.16036C0.745472 6.12768 0.802881 6.10985 0.861785 6.10902L14.7878 6.09794C14.8713 6.09965 14.9536 6.11819 15.0297 6.15245C15.1059 6.18671 15.1743 6.23599 15.2309 6.29733L18.204 9.56284ZM3.60446 0.31572C3.6611 0.254378 3.72953 0.205101 3.80567 0.17084C3.8818 0.136579 3.96407 0.11804 4.04754 0.116333L17.978 0.12741C18.0369 0.12824 18.0943 0.146069 18.1434 0.178754C18.1924 0.21144 18.2309 0.257588 18.2543 0.311649C18.2777 0.365711 18.285 0.425382 18.2753 0.483486C18.2656 0.54159 18.2393 0.595652 18.1996 0.63917L15.2398 3.90468C15.1832 3.96603 15.1147 4.0153 15.0386 4.04956C14.9624 4.08383 14.8802 4.10236 14.7967 4.10407H0.866216C0.807312 4.10324 0.749903 4.08541 0.700893 4.05273C0.651882 4.02004 0.613359 3.97389 0.589956 3.91983C0.566553 3.86577 0.559267 3.8061 0.568974 3.748C0.578682 3.68989 0.604969 3.63583 0.644675 3.59231L3.60446 0.31572Z" fill="white"/>
</svg>
