<svg width="18" height="17" viewBox="0 0 18 17" fill="none" xmlns="http://www.w3.org/2000/svg">
<path fill-rule="evenodd" clip-rule="evenodd" d="M3.2596 12.9839C3.31623 12.9226 3.38465 12.8733 3.46077 12.839C3.53689 12.8048 3.61914 12.7862 3.7026 12.7845H17.6217C17.6806 12.7854 17.738 12.8032 17.787 12.8359C17.836 12.8685 17.8745 12.9147 17.8979 12.9687C17.9213 13.0228 17.9286 13.0824 17.9188 13.1405C17.9091 13.1986 17.8829 13.2527 17.8432 13.2962L14.8928 16.5722C14.8362 16.6335 14.7677 16.6828 14.6916 16.717C14.6155 16.7513 14.5332 16.7698 14.4498 16.7715H0.52186C0.462967 16.7707 0.405568 16.7529 0.356567 16.7202C0.307566 16.6875 0.26905 16.6414 0.245651 16.5873C0.222252 16.5333 0.214968 16.4736 0.224673 16.4155C0.234379 16.3574 0.260662 16.3034 0.30036 16.2599L3.2596 12.9839ZM17.8565 10.2683C17.8962 10.3118 17.9224 10.3659 17.9321 10.424C17.9418 10.482 17.9346 10.5417 17.9112 10.5958C17.8878 10.6498 17.8492 10.6959 17.8002 10.7286C17.7512 10.7613 17.6938 10.7791 17.635 10.78L3.71146 10.791C3.628 10.7893 3.54575 10.7708 3.46963 10.7365C3.39351 10.7023 3.32509 10.653 3.26846 10.5917L0.29593 7.32678C0.256232 7.28327 0.229949 7.22922 0.220243 7.17112C0.210538 7.11303 0.217822 7.05337 0.241221 6.99932C0.26462 6.94527 0.303136 6.89913 0.352137 6.86645C0.401138 6.83377 0.458537 6.81594 0.51743 6.81512L14.4409 6.80404C14.5244 6.80575 14.6066 6.82428 14.6828 6.85854C14.7589 6.89279 14.8273 6.94206 14.8839 7.00339L17.8565 10.2683ZM3.2596 1.0229C3.31623 0.961567 3.38465 0.912299 3.46077 0.878044C3.53689 0.843789 3.61914 0.825254 3.7026 0.823547L17.6305 0.834622C17.6894 0.835452 17.7468 0.853278 17.7958 0.885957C17.8448 0.918636 17.8833 0.964776 17.9067 1.01883C17.9301 1.07288 17.9374 1.13254 17.9277 1.19063C17.918 1.24873 17.8917 1.30278 17.852 1.34629L14.8928 4.61119C14.8362 4.67252 14.7677 4.72179 14.6916 4.75605C14.6155 4.7903 14.5332 4.80884 14.4498 4.81054H0.52186C0.462967 4.80971 0.405568 4.79189 0.356567 4.75921C0.307566 4.72653 0.26905 4.68039 0.245651 4.62634C0.222252 4.57229 0.214968 4.51263 0.224673 4.45453C0.234379 4.39644 0.260662 4.34239 0.30036 4.29888L3.2596 1.0229Z" fill="white"/>
</svg>
